<svg xmlns="http://www.w3.org/2000/svg" width="500" height="500" style="width:100%;height:100%;transform:translate3d(0,0,0);content-visibility:visible" viewBox="0 0 500 500"><defs><clipPath id="k"><path d="M0 0h500v500H0z"/></clipPath><clipPath id="s"><path d="M0 0h500v500H0z"/></clipPath><clipPath id="q"><path d="M0 0h500v500H0z"/></clipPath><clipPath id="i"><path d="M0 0h500v500H0z"/></clipPath><clipPath id="p"><path d="M0 0h500v500H0z"/></clipPath><clipPath id="n"><path d="M0 0h500v500H0z"/></clipPath><clipPath id="j"><path d="M0 0h500v500H0z"/></clipPath><clipPath id="l"><path d="M0 0h500v500H0z"/></clipPath><filter id="a" width="100%" height="100%" x="0%" y="0%" filterUnits="objectBoundingBox"><feComponentTransfer in="SourceGraphic"><feFuncA tableValues="1.0 0.0" type="table"/></feComponentTransfer></filter><filter id="c" width="100%" height="100%" x="0%" y="0%" filterUnits="objectBoundingBox"><feComponentTransfer in="SourceGraphic"><feFuncA tableValues="1.0 0.0" type="table"/></feComponentTransfer></filter><filter id="e" width="100%" height="100%" x="0%" y="0%" filterUnits="objectBoundingBox"><feComponentTransfer in="SourceGraphic"><feFuncA tableValues="1.0 0.0" type="table"/></feComponentTransfer></filter><filter id="g" width="100%" height="100%" x="0%" y="0%" filterUnits="objectBoundingBox"><feComponentTransfer in="SourceGraphic"><feFuncA tableValues="1.0 0.0" type="table"/></feComponentTransfer></filter><mask id="t" mask-type="alpha"><g filter="url(#a)"><path fill="#fff" d="M0 0h500v500H0z" opacity="0"/><use xmlns:ns1="http://www.w3.org/1999/xlink" ns1:href="#b"/></g></mask><mask id="r" mask-type="alpha"><g filter="url(#c)"><path fill="#fff" d="M0 0h500v500H0z" opacity="0"/><use xmlns:ns2="http://www.w3.org/1999/xlink" ns2:href="#d"/></g></mask><mask id="o" mask-type="alpha"><g filter="url(#e)"><path fill="#fff" d="M0 0h500v500H0z" opacity="0"/><use xmlns:ns3="http://www.w3.org/1999/xlink" ns3:href="#f"/></g></mask><mask id="m" mask-type="alpha"><g filter="url(#g)"><path fill="#fff" d="M0 0h500v500H0z" opacity="0"/><use xmlns:ns4="http://www.w3.org/1999/xlink" ns4:href="#h"/></g></mask><g id="b" class="primary design" style="display:none"><path fill-opacity="0" stroke-linecap="round" stroke-linejoin="round" class="primary"/></g><g id="d" clip-path="url(#i)" style="display:none"><g class="primary design" style="display:none"><path fill-opacity="0" stroke-linecap="round" stroke-linejoin="round" class="primary"/></g><g class="primary design" style="display:none"><path fill-opacity="0" stroke-linecap="round" stroke-linejoin="round" class="primary"/></g></g><g id="f" clip-path="url(#j)" style="display:none"><g class="primary design" style="display:none"><path fill-opacity="0" stroke-linecap="round" stroke-linejoin="round" class="primary"/></g><g class="primary design" style="display:none"><path fill-opacity="0" stroke-linecap="round" stroke-linejoin="round" class="primary"/></g></g><g id="h" class="primary design" style="display:none"><path fill-opacity="0" stroke-linecap="round" stroke-linejoin="round" class="primary"/></g></defs><g clip-path="url(#k)"><g clip-path="url(#l)" style="display:none"><g class="primary design" style="display:none"><path class="primary"/></g><g class="primary design" mask="url(#m)" style="display:none"><path class="primary"/><path fill="none" class="primary"/></g><g class="primary design" style="display:none"><path class="primary"/></g></g><g clip-path="url(#n)" style="display:none"><g class="primary design" mask="url(#o)" style="display:none"><path class="primary"/><path fill="none" class="primary"/></g><g class="primary design" style="display:none"><path class="primary"/></g><g class="primary design" style="display:none"><path class="primary"/></g></g><g class="primary design" clip-path="url(#p)" style="display:none"><path class="primary"/><path fill="none" class="primary"/></g><g clip-path="url(#q)" style="display:block"><g class="primary design" mask="url(#r)" style="display:none"><path fill="none" class="primary"/><path class="primary"/></g><g class="primary design" style="display:block"><path fill="#121331" d="M250 41.7h-5C130.229 44.616 38.993 140.226 41.7 255c2.708 113.106 95.61 203.3 208.3 203.3h5c114.772-2.916 206.008-98.526 203.3-213.3C455.592 131.895 362.69 41.7 250 41.7zm-27.912 291.62c-5.416 0-10.624-2.083-14.79-6.04l-52.075-52.284c-8.123-8.124-8.123-21.247 0-29.37 8.124-8.124 21.247-8.124 29.37 0l37.495 37.494 100.192-99.984c8.124-8.124 21.247-8.124 29.37 0 8.124 8.123 8.124 21.246 0 29.37L236.877 327.279c-4.166 3.958-9.373 6.041-14.79 6.041z" class="primary"/></g><g class="primary design" style="display:none"><path class="primary"/></g></g><g clip-path="url(#s)" style="display:none"><g class="primary design" mask="url(#t)" style="display:none"><path class="primary"/><path fill="none" class="primary"/></g><g class="primary design" style="display:none"><path class="primary"/></g></g></g></svg>